<?xml version="1.0" encoding="UTF-8"?>
<svg width="100px" height="100px" viewBox="0 0 100 100" version="1.1" xmlns="http://www.w3.org/2000/svg">
  <path d="M3.10633772,0.00402508102 L3.3291,0.0078 C39.2351,2.3508 67.1451,15.5118 79.9031,36.1208 C88.9386795,50.7129311 89.8961165,68.42993 82.7257184,87.5368113 C91.0370145,92.2498535 96.7922396,93.6502729 97.4313771,93.795955 L97.4883,93.8086 C99.17969,94.1524 100.27344,95.793 99.9375,97.4883 C99.6445,98.9766 98.3398,100 96.8789,100 C96.675561,100 96.468531,99.9801713 96.261501,99.9372023 C95.6343831,99.8136247 88.7528416,98.3443578 78.9278306,92.6909185 C70.428066,95.4817671 62.5311597,96.875144 55.27,96.875144 C45.09402,96.875144 36.16072,94.140744 28.56302,88.67594 C4.95802,71.69494 0.00102,32.78094 0.00102,3.12494 C0.00102,2.26174 0.35649,1.43358 0.9893,0.84374 C1.6182,0.2578 2.43066,-0.0352 3.3291,0.0078 Z M6.271,6.4957 C6.782,44.5897 15.946,71.9027 32.212,83.5977 C42.4721699,90.9804054 55.8188375,92.5380126 71.947056,88.249284 C60.4176564,80.1993588 46.4525769,66.8293807 33.8945,44.8472 C33.0391,43.3511 33.5625,41.44097 35.0586,40.5855 C36.5586,39.7262 38.46874,40.2535 39.3203,41.7496 C51.9224169,63.8045322 66.0975202,76.7362434 77.2996088,84.1944289 C83.4074522,67.2407687 82.5022218,52.1882023 74.591,39.4137 C63.298,21.1677 38.505,9.2652 6.271,6.4957 Z" id="Combined-Shape" fill="#000000"></path>
</svg>