<?xml version="1.0" encoding="UTF-8"?>
<svg width="111px" height="84px" viewBox="0 0 111 84" version="1.1" xmlns="http://www.w3.org/2000/svg" xmlns:xlink="http://www.w3.org/1999/xlink">
    <!-- Generator: Sketch 63.1 (92452) - https://sketch.com -->
    <title>Group</title>
    <desc>Created with Sketch.</desc>
    <g id="Page-1" stroke="none" stroke-width="1" fill="none" fill-rule="evenodd" fill-opacity="0.7">
        <g id="Artboard" transform="translate(-45.000000, -56.000000)" fill="#FFFFFF">
            <g id="Group" transform="translate(29.458132, 56.812399)">
                <path d="M60.5418678,69.2166363 C43.7863354,41.5533417 43.7863354,22.0132753 70.326708,0 C96.8325792,22.6194439 96.8325792,42 80.5418678,69.2166363 L70.5418678,83.1066834 L60.5418678,69.2166363 Z" id="Path"></path>
                <path d="M34.1669977,78.9105056 C17.4114654,51.247211 17.4114654,31.7071446 43.951838,9.69386932 C70.4577091,32.3133133 70.4577091,51.6938693 54.1669977,78.9105056 L44.1669977,92.8005528 L34.1669977,78.9105056 Z" id="Path" transform="translate(43.976640, 51.247211) rotate(-40.000000) translate(-43.976640, -51.247211) "></path>
                <path d="M88.0042595,78.7759816 C71.2487272,51.112687 71.2487272,31.5726205 97.7890998,9.55934525 C124.294971,32.1787892 124.294971,51.5593452 108.00426,78.7759816 L98.0042595,92.6660287 L88.0042595,78.7759816 Z" id="Path" transform="translate(97.813902, 51.112687) rotate(40.000000) translate(-97.813902, -51.112687) "></path>
            </g>
        </g>
    </g>
</svg>