<svg width="50px" height="144px" viewBox="0 0 50 144" version="1.1" xmlns="http://www.w3.org/2000/svg" xmlns:xlink="http://www.w3.org/1999/xlink">
  <defs>
    <linearGradient x1="50%" y1="0%" x2="50%" y2="100%" id="toggle">
      <stop class="color1" offset="0%"></stop>
      <stop class="color2" offset="100%"></stop>
    </linearGradient>
  </defs>
  <path class="cutout" d="M32,0 L27,0 C27,13.7468155 27,20.7468155 27,21 C27,45 0,52 0,72 C0,92 27,97.7401259 27,123 C27,137 27,144 27,144 L32,144 L32,0 Z" ></path>
  <circle class="circle" fill="url(#toggle)" fill-rule="nonzero" cx="30" cy="72" r="20"></circle>
  <path d="M27.0093994,72.0126906 C31.0833793,68.2834775 33.2826365,66.2703357 33.607171,65.9732654 C34.0939728,65.5276599 34.166654,64.8717211 33.607171,64.3595852 C33.047688,63.8474494 32.3311075,63.9139798 31.8443057,64.3595852 C31.5197711,64.6566556 29.026703,66.938744 24.3651014,71.2058505 C23.8782995,71.6514559 23.8782995,72.3739252 24.3651014,72.8195307 L31.8443057,79.6657959 C32.3311075,80.1114014 33.1203692,80.1114014 33.607171,79.6657959 C34.0939728,79.2201904 34.0939728,78.4977212 33.607171,78.0521157 L27.0093994,72.0126906 Z" class="arrow" fill-rule="nonzero"></path>
</svg>