<svg width="100pt" height="100pt" version="1.1" viewBox="0 0 100 100" xmlns="http://www.w3.org/2000/svg">
 <path d="m36.59 50.945-21.332 21.332c-0.011718 0.011718-0.011718 0.023437-0.023437 0.035156-0.089844 0.097656-0.16406 0.20703-0.21875 0.32812-0.015625 0.03125-0.03125 0.058594-0.042969 0.089844-0.007812 0.019531-0.019531 0.039062-0.027344 0.058593l-4.8945 15.59c-0.14062 0.44531-0.019531 0.92969 0.30859 1.2578 0.23828 0.23828 0.55859 0.36719 0.88281 0.36719 0.125 0 0.25-0.019531 0.375-0.058594l15.59-4.8945c0.019531-0.007812 0.039063-0.019531 0.058594-0.027343 0.03125-0.011719 0.058594-0.027344 0.089844-0.042969 0.12109-0.054688 0.23438-0.12891 0.32812-0.21875 0.011718-0.007813 0.023437-0.011719 0.035156-0.023438l21.328-21.328 26.223 26.223c0.23438 0.23438 0.55078 0.36719 0.88281 0.36719 0.33203 0 0.64844-0.13281 0.88281-0.36719l12.59-12.59c0.48828-0.48828 0.48828-1.2812 0-1.7695l-26.215-26.219 25.328-25.324c0.8125-0.8125 1.2617-1.8984 1.2617-3.0469 0-1.1523-0.44922-2.2344-1.2617-3.0469l-6.3672-6.3672c-1.6797-1.6797-4.418-1.6797-6.0977 0l-25.328 25.32-26.223-26.223c-0.48828-0.48828-1.2812-0.48828-1.7656 0l-12.59 12.59c-0.23438 0.23438-0.36719 0.55078-0.36719 0.88281 0 0.33203 0.13281 0.64844 0.36719 0.88281zm-23.43 35.895 3.5586-11.34 7.7812 7.7812zm50.586-33.918 3.1992 3.1992-5.2422 5.2422c-0.48828 0.48828-0.48828 1.2812 0 1.7656 0.24219 0.24219 0.5625 0.36719 0.88281 0.36719 0.32031 0 0.64062-0.12109 0.88281-0.36719l5.2422-5.2422 3.1992 3.1992-2.7148 2.7148c-0.48828 0.48828-0.48828 1.2812 0 1.7695 0.24219 0.24219 0.5625 0.36719 0.88281 0.36719s0.64062-0.12109 0.88281-0.36719l2.7148-2.7148 3.1992 3.1992-2.7148 2.7148c-0.48828 0.48828-0.48828 1.2773 0 1.7695 0.24219 0.24219 0.5625 0.36719 0.88281 0.36719 0.32031 0 0.64062-0.12109 0.88281-0.36719l2.7148-2.7148 3.1992 3.1992-5.2383 5.2383c-0.48828 0.48828-0.48828 1.2773 0 1.7656 0.24219 0.24609 0.5625 0.36719 0.88281 0.36719s0.64062-0.12109 0.88281-0.36719l5.2422-5.2422 3.3711 3.3711-10.82 10.82-25.34-25.332 4.9805-4.9805 5.8438-5.8398 0.33203 0.33203-2.7148 2.7148c-0.48828 0.48828-0.48828 1.2812 0 1.7656 0.24219 0.24219 0.5625 0.36719 0.88281 0.36719 0.32031 0 0.64062-0.12109 0.88281-0.36719zm-36.906 29.168-3.582-3.582 53.68-53.68 3.582 3.582zm51.199-69.059c0.68359-0.68359 1.875-0.68359 2.5625 0l6.3672 6.3672c0.34375 0.34375 0.53125 0.79687 0.53125 1.2812 0 0.48437-0.1875 0.9375-0.53125 1.2812l-4.6797 4.6797-8.9297-8.9297zm-6.4453 6.4492 3.582 3.582-53.684 53.68-3.582-3.582zm-47.754-6.4648 3.3711 3.3711-2.7148 2.7148c-0.48828 0.48828-0.48828 1.2812 0 1.7656 0.24219 0.24219 0.5625 0.36719 0.88281 0.36719 0.32031 0 0.64062-0.12109 0.88281-0.36719l2.7148-2.7148 3.1992 3.1992-2.7148 2.7148c-0.48828 0.48828-0.48828 1.2812 0 1.7656 0.24609 0.24219 0.5625 0.36719 0.88281 0.36719s0.64062-0.12109 0.88281-0.36719l2.7148-2.7148 3.1992 3.1992-5.2422 5.2422c-0.48828 0.48828-0.48828 1.2773 0 1.7656 0.24219 0.24219 0.5625 0.36719 0.88281 0.36719s0.64062-0.12109 0.88281-0.36719l5.2422-5.2422 3.1992 3.1992-2.7148 2.7148c-0.48828 0.48828-0.48828 1.2773 0 1.7695 0.24219 0.24219 0.5625 0.36719 0.88281 0.36719 0.32031 0 0.64062-0.12109 0.88281-0.36719l2.7148-2.7148 3.1992 3.1992-2.7148 2.7148c-0.48828 0.48828-0.48828 1.2812 0 1.7695 0.24219 0.24219 0.5625 0.36719 0.88281 0.36719 0.32031 0 0.64062-0.12109 0.88281-0.36719l2.7148-2.7148 0.33203 0.33203-10.82 10.82-25.332-25.332z"/>
</svg>
