<svg width="100pt" height="100pt" version="1.1" viewBox="0 0 100 100" xmlns="http://www.w3.org/2000/svg">
  <path d="m76.602 4.3008s-5 6.1992-12.5 11.398c-5.3984 4.3984-8.1992 8.6992-8.5 12.898l-0.69922-2.3984s-7 10.602-10.602 15.5c0 0-3.3008 3.3008-2.3984 9.8984l-1-3s-13.602 13.398-5.6992 29.199c-3.8008-18 5-27.102 5-27.102 2 2 1.6992 9.3008 1.6992 9.3008l0.80078-8.1992c-1.1016-8.5977 11.297-21.898 11.297-21.898 1.1016 0 1.5 5.1992 1.5 5.1992 1.8008-13.398 5.5-14.496 5.5-14.496l11.602-9.3008c0.39844 4.3008-4.6992 9.5-4.6992 9.5l4.6992-1.1016c0 3.1992-3.5 17.301-3.5 17.301-0.69922 7.6992-4.5 8.6992-4.5 8.6992l-12.102 7.5 12.102-2.5-3.6016 7c-2.3984 8.6992-15.898 9.8984-15.898 9.8984l7.3008 1.3008c3.8008 0 1.3008 3.1992 1.3008 3.1992-9.1016 9.1016-15.5 7.3008-15.5 7.3008-3.5 0-3.8984 0.80078-3.8984 0.80078-3.8008 6.6016-12.801 14.199-12.801 14.199l4.1016-2.1992s2.8984-2.5 4.8008-2.6992c1.8984-0.19922 4.6992-6.6992 4.6992-6.6992s0.19922-0.80078 1.6992-0.89844c0 0 14 2 21.301-14.398l-1.6016-0.60156 1.3008-0.30078 10-18-3.8984-0.19922s6.5-2.6992 6.3008-7.1992l4.793-25.402-1.6016 1s4.2031-6.5 3.2031-12.5z"/>
  <path d="m64.898 27.199 0.19922-0.30078c0.003906 0-0.097656 0.10156-0.19922 0.30078z"/>
  <path d="m64.898 27.199-29.801 50c0.20312 5.6992 27.402-45.598 29.801-50z"/>
</svg>
