<?xml version="1.0" encoding="UTF-8"?>
<svg width="100pt" height="100pt" version="1.1" viewBox="0 0 100 100" xmlns="http://www.w3.org/2000/svg">
  <path d="m16.879 84.762h22.398 35.68 8.1602c1.0781 0 2-0.92188 2-2v-22.141-35.281-8.0781c0-1.0781-0.92188-2-2-2h-22.398-35.68-8.1602c-1.0781 0-2 0.92188-2 2v22.141 35.281 8.0781c0 2.5781 4 2.5781 4 0v-22.141-35.281-8.0781c-0.66016 0.66016-1.3398 1.3398-2 2h22.398 35.68 8.1602l-2-2v22.141 35.281 8.0781c0.66016-0.66016 1.3398-1.3398 2-2h-22.398-35.68-8.1602c-2.5781 0-2.5781 4 0 4z"/>
  <path d="m58.219 17.359v22.121 35.121 8.0391c0 2.5781 4 2.5781 4 0v-22.121-35.121-8.0391c0-2.5781-4-2.5781-4 0z"/>
  <path d="m82.961 37.48h-19.84-2.8203c-2.5781 0-2.5781 4 0 4h19.84 2.8203c2.5781 0 2.5781-4 0-4z"/>
  <path d="m82.66 59.738h-19.621-2.7812c-2.5781 0-2.5781 4 0 4h19.621 2.7812c2.5781 0 2.5781-4 0-4z"/>
</svg>
